<svg width="20" height="20" viewBox="0 0 20 20" fill="none" xmlns="http://www.w3.org/2000/svg">
<path d="M4.56746 1.66008C4.49367 1.56516 4.40053 1.48703 4.29422 1.43087C4.18791 1.37471 4.07087 1.34182 3.95087 1.33437C3.83088 1.32692 3.71067 1.34509 3.59823 1.38767C3.4858 1.43025 3.38371 1.49627 3.29875 1.58134L2.00629 2.87505C1.40256 3.48004 1.18006 4.33627 1.4438 5.0875C2.53845 8.19691 4.31908 11.02 6.65364 13.3473C8.98098 15.6818 11.804 17.4625 14.9134 18.5572C15.6646 18.8209 16.5208 18.5984 17.1258 17.9947L18.4183 16.7022C18.5033 16.6173 18.5694 16.5152 18.6119 16.4027C18.6545 16.2903 18.6727 16.1701 18.6652 16.0501C18.6578 15.9301 18.6249 15.813 18.5687 15.7067C18.5126 15.6004 18.4344 15.5073 18.3395 15.4335L15.4559 13.1911C15.3545 13.1124 15.2365 13.0578 15.1109 13.0314C14.9853 13.005 14.8554 13.0074 14.7309 13.0386L11.9935 13.7223C11.6281 13.8136 11.2453 13.8088 10.8823 13.7082C10.5194 13.6077 10.1886 13.4149 9.92229 13.1486L6.85239 10.0774C6.58585 9.81118 6.39281 9.4805 6.29204 9.11753C6.19128 8.75456 6.18624 8.37168 6.2774 8.00618L6.96238 5.26875C6.99352 5.14424 6.99597 5.0143 6.96955 4.88871C6.94313 4.76312 6.88854 4.64517 6.80989 4.54376L4.56746 1.66008ZM2.35503 0.638859C2.57376 0.420051 2.83655 0.250281 3.12593 0.140823C3.41531 0.0313639 3.72466 -0.0152791 4.03345 0.0039908C4.34224 0.0232607 4.6434 0.108003 4.91692 0.252589C5.19045 0.397176 5.43009 0.598299 5.61992 0.842604L7.86235 3.72503C8.27359 4.25377 8.41859 4.9425 8.25609 5.59249L7.57236 8.32992C7.53701 8.47171 7.53892 8.62022 7.57791 8.76105C7.61689 8.90188 7.69163 9.03023 7.79486 9.13365L10.866 12.2048C10.9696 12.3083 11.0981 12.3831 11.2392 12.4221C11.3803 12.4611 11.529 12.4629 11.671 12.4273L14.4071 11.7436C14.7279 11.6634 15.0627 11.6572 15.3862 11.7254C15.7097 11.7936 16.0135 11.9345 16.2746 12.1373L19.157 14.3798C20.1932 15.186 20.2882 16.7172 19.3607 17.6434L18.0683 18.9359C17.1433 19.8609 15.7609 20.2671 14.4721 19.8134C11.1737 18.6528 8.17893 16.7645 5.70992 14.2885C3.23411 11.8199 1.34582 8.82548 0.185095 5.52749C-0.267391 4.24002 0.138846 2.8563 1.06382 1.93133L2.35628 0.638859H2.35503Z" fill="#E5E5E5"/>
</svg>
