<svg width="20" height="20" viewBox="0 0 20 20" fill="none" xmlns="http://www.w3.org/2000/svg">
<path d="M10 0C4.475 0 0 4.49872 0 10.053C0 14.5015 2.8625 18.2588 6.8375 19.5908C7.3375 19.6788 7.525 19.3772 7.525 19.1133C7.525 18.8745 7.5125 18.0828 7.5125 17.2409C5 17.7059 4.35 16.6252 4.15 16.0597C4.0375 15.7707 3.55 14.8784 3.125 14.6397C2.775 14.4512 2.275 13.9862 3.1125 13.9737C3.9 13.9611 4.4625 14.7025 4.65 15.0041C5.55 16.5246 6.9875 16.0974 7.5625 15.8335C7.65 15.18 7.9125 14.7402 8.2 14.4889C5.975 14.2376 3.65 13.3705 3.65 9.52522C3.65 8.43196 4.0375 7.52719 4.675 6.82348C4.575 6.57215 4.225 5.54172 4.775 4.15943C4.775 4.15943 5.6125 3.89554 7.525 5.18986C8.325 4.96367 9.175 4.85058 10.025 4.85058C10.875 4.85058 11.725 4.96367 12.525 5.18986C14.4375 3.88297 15.275 4.15943 15.275 4.15943C15.825 5.54172 15.475 6.57215 15.375 6.82348C16.0125 7.52719 16.4 8.41939 16.4 9.52522C16.4 13.3831 14.0625 14.2376 11.8375 14.4889C12.2 14.8031 12.5125 15.4062 12.5125 16.3487C12.5125 17.6933 12.5 18.774 12.5 19.1133C12.5 19.3772 12.6875 19.6913 13.1875 19.5908C15.1728 18.9172 16.8979 17.6347 18.12 15.9237C19.3421 14.2127 19.9997 12.1594 20 10.053C20 4.49872 15.525 0 10 0Z" fill="#E5E5E5"/>
</svg>
