<svg width="103" height="37" viewBox="0 0 103 37" fill="none" xmlns="http://www.w3.org/2000/svg">
<path d="M0.0800018 36.52V35.72C1.14667 35.6133 2.05334 35.2933 2.8 34.76C3.54667 34.2533 4.12 33.3733 4.52 32.12C4.92 30.8667 5.12 29.1067 5.12 26.84V4.91999C5.12 3.93332 5.04 3.21332 4.88 2.75999C4.74667 2.27999 4.46667 1.95999 4.04 1.79999C3.61334 1.61333 2.97334 1.50666 2.12 1.47999V0.679993C2.78667 0.706659 3.65334 0.733325 4.72 0.759992C5.81334 0.786658 6.96 0.799991 8.16 0.799991C9.36 0.799991 10.52 0.786658 11.64 0.759992C12.7867 0.733325 13.7333 0.706659 14.48 0.679993V1.47999C13.6533 1.50666 13.0133 1.61333 12.56 1.79999C12.1333 1.95999 11.84 2.27999 11.68 2.75999C11.5467 3.21332 11.48 3.93332 11.48 4.91999V19.56C11.48 20.6533 11.48 21.84 11.48 23.12C11.48 24.3733 11.4267 25.6 11.32 26.8C11.24 28 11.0667 29.0667 10.8 30C10.2667 31.84 9.10667 33.3867 7.32 34.64C5.56 35.8933 3.14667 36.52 0.0800018 36.52Z" fill="#141414"/>
<path d="M29.5303 0.679993V1.47999C28.6236 1.50666 27.9303 1.61333 27.4503 1.79999C26.997 1.95999 26.6903 2.27999 26.5303 2.75999C26.3703 3.21332 26.2903 3.93332 26.2903 4.91999V25.24C26.2903 26.0667 26.3436 26.68 26.4503 27.08C26.5836 27.48 26.8236 27.7467 27.1703 27.88C27.5436 28.0133 28.0903 28.08 28.8103 28.08H30.7703C31.677 28.08 32.5303 27.8667 33.3303 27.44C34.1303 27.0133 34.8503 26.4133 35.4903 25.64C36.1303 24.84 36.6636 23.8933 37.0903 22.8C37.517 21.7067 37.837 20.4933 38.0503 19.16H38.9703C38.8903 20.0667 38.8503 21.24 38.8503 22.68C38.8503 23.2933 38.8636 24.1867 38.8903 25.36C38.917 26.5333 38.997 27.7467 39.1303 29C37.7703 28.9467 36.237 28.92 34.5303 28.92C32.8236 28.8933 31.3036 28.88 29.9703 28.88C29.3036 28.88 28.4503 28.88 27.4103 28.88C26.3703 28.88 25.2503 28.8933 24.0503 28.92C22.8503 28.92 21.637 28.9333 20.4103 28.96C19.1836 28.96 18.0236 28.9733 16.9303 29V28.2C17.7836 28.1467 18.4236 28.04 18.8503 27.88C19.277 27.72 19.557 27.4 19.6903 26.92C19.8503 26.44 19.9303 25.72 19.9303 24.76V4.91999C19.9303 3.93332 19.8503 3.21332 19.6903 2.75999C19.557 2.27999 19.2636 1.95999 18.8103 1.79999C18.3836 1.61333 17.757 1.50666 16.9303 1.47999V0.679993C17.597 0.706659 18.4903 0.733325 19.6103 0.759992C20.757 0.786658 21.9703 0.799991 23.2503 0.799991C24.4236 0.799991 25.5703 0.786658 26.6903 0.759992C27.837 0.733325 28.7836 0.706659 29.5303 0.679993Z" fill="#141414"/>
<path d="M56.1274 12.008V12.488C55.6154 12.552 55.2234 12.688 54.9514 12.896C54.6954 13.088 54.5274 13.4 54.4474 13.832C54.3674 14.264 54.3274 14.872 54.3274 15.656V22.016C54.3274 23.056 54.2554 24.008 54.1114 24.872C53.9674 25.736 53.7114 26.48 53.3434 27.104C52.9274 27.792 52.3194 28.336 51.5194 28.736C50.7194 29.136 49.7034 29.336 48.4714 29.336C47.7354 29.336 46.9834 29.248 46.2154 29.072C45.4474 28.912 44.7594 28.6 44.1514 28.136C43.6394 27.704 43.2474 27.216 42.9754 26.672C42.7034 26.128 42.5194 25.488 42.4234 24.752C42.3274 24 42.2794 23.112 42.2794 22.088V14.552C42.2794 13.96 42.2314 13.528 42.1354 13.256C42.0554 12.968 41.8874 12.776 41.6314 12.68C41.3754 12.568 40.9914 12.504 40.4794 12.488V12.008C40.8794 12.024 41.4154 12.04 42.0874 12.056C42.7754 12.072 43.4874 12.08 44.2234 12.08C44.9594 12.08 45.6634 12.072 46.3354 12.056C47.0234 12.04 47.5914 12.024 48.0394 12.008V12.488C47.4954 12.504 47.0794 12.568 46.7914 12.68C46.5194 12.776 46.3354 12.968 46.2394 13.256C46.1434 13.528 46.0954 13.96 46.0954 14.552V23.6C46.0954 24.4 46.1434 25.112 46.2394 25.736C46.3514 26.344 46.5274 26.856 46.7674 27.272C47.0234 27.672 47.3674 27.976 47.7994 28.184C48.2314 28.392 48.7674 28.496 49.4074 28.496C50.5274 28.496 51.3994 28.232 52.0234 27.704C52.6634 27.176 53.1114 26.448 53.3674 25.52C53.6394 24.576 53.7754 23.496 53.7754 22.28V15.944C53.7754 15.064 53.7194 14.392 53.6074 13.928C53.4954 13.448 53.2714 13.104 52.9354 12.896C52.6154 12.688 52.1194 12.552 51.4474 12.488V12.008C51.7514 12.024 52.1514 12.04 52.6474 12.056C53.1434 12.072 53.6074 12.08 54.0394 12.08C54.4234 12.08 54.7994 12.072 55.1674 12.056C55.5514 12.04 55.8714 12.024 56.1274 12.008Z" fill="#141414"/>
<path d="M65.9577 11.672C67.0137 11.672 67.8777 11.832 68.5497 12.152C69.2377 12.456 69.8457 12.816 70.3737 13.232C70.6937 13.472 70.9337 13.504 71.0937 13.328C71.2697 13.136 71.3897 12.696 71.4537 12.008H72.0057C71.9737 12.632 71.9497 13.392 71.9337 14.288C71.9177 15.168 71.9097 16.344 71.9097 17.816H71.3577C71.2777 17.08 71.1737 16.456 71.0457 15.944C70.9177 15.416 70.7417 14.952 70.5177 14.552C70.2937 14.152 69.9737 13.792 69.5577 13.472C69.1577 13.072 68.6937 12.776 68.1657 12.584C67.6377 12.392 67.0857 12.296 66.5097 12.296C65.6457 12.296 64.9097 12.528 64.3017 12.992C63.6937 13.44 63.1977 14.056 62.8137 14.84C62.4457 15.624 62.1737 16.512 61.9977 17.504C61.8217 18.48 61.7337 19.496 61.7337 20.552C61.7337 21.624 61.8217 22.656 61.9977 23.648C62.1897 24.624 62.4777 25.496 62.8617 26.264C63.2617 27.032 63.7737 27.64 64.3977 28.088C65.0217 28.536 65.7577 28.76 66.6057 28.76C67.1337 28.76 67.6617 28.664 68.1897 28.472C68.7337 28.264 69.1977 27.968 69.5817 27.584C70.2057 27.104 70.6297 26.512 70.8537 25.808C71.0777 25.088 71.2457 24.136 71.3577 22.952H71.9097C71.9097 24.472 71.9177 25.704 71.9337 26.648C71.9497 27.576 71.9737 28.36 72.0057 29H71.4537C71.3897 28.312 71.2777 27.88 71.1177 27.704C70.9737 27.528 70.7257 27.552 70.3737 27.776C69.7817 28.192 69.1497 28.56 68.4777 28.88C67.8217 29.184 66.9737 29.336 65.9337 29.336C64.2377 29.336 62.7497 28.992 61.4697 28.304C60.2057 27.616 59.2217 26.624 58.5177 25.328C57.8137 24.032 57.4617 22.472 57.4617 20.648C57.4617 18.856 57.8217 17.288 58.5417 15.944C59.2777 14.6 60.2777 13.552 61.5417 12.8C62.8217 12.048 64.2937 11.672 65.9577 11.672Z" fill="#141414"/>
<path d="M82.1836 11.96L88.0156 26.984C88.2396 27.56 88.4876 27.96 88.7596 28.184C89.0476 28.392 89.3036 28.504 89.5276 28.52V29C89.0476 28.968 88.4796 28.952 87.8236 28.952C87.1836 28.936 86.5356 28.928 85.8796 28.928C85.1436 28.928 84.4476 28.936 83.7916 28.952C83.1356 28.952 82.6156 28.968 82.2316 29V28.52C83.0476 28.488 83.5596 28.352 83.7676 28.112C83.9916 27.856 83.9436 27.32 83.6236 26.504L79.5436 15.344L79.9756 14.72L76.3276 24.224C75.9756 25.104 75.7596 25.824 75.6796 26.384C75.6156 26.944 75.6556 27.376 75.7996 27.68C75.9596 27.984 76.2076 28.2 76.5436 28.328C76.8956 28.44 77.3116 28.504 77.7916 28.52V29C77.2636 28.968 76.7596 28.952 76.2796 28.952C75.7996 28.936 75.3116 28.928 74.8156 28.928C74.4636 28.928 74.1276 28.936 73.8076 28.952C73.5036 28.952 73.2316 28.968 72.9916 29V28.52C73.3276 28.456 73.6716 28.24 74.0236 27.872C74.3756 27.504 74.7196 26.88 75.0556 26L80.5276 11.96C80.7836 11.976 81.0556 11.984 81.3436 11.984C81.6476 11.984 81.9276 11.976 82.1836 11.96ZM83.8636 22.088V22.568H76.7116L76.9516 22.088H83.8636Z" fill="#141414"/>
<path d="M96.1754 11.696C97.1194 11.696 97.8474 11.8 98.3594 12.008C98.8714 12.2 99.3114 12.408 99.6794 12.632C99.8714 12.744 100.023 12.832 100.135 12.896C100.263 12.944 100.383 12.968 100.495 12.968C100.655 12.968 100.767 12.88 100.831 12.704C100.911 12.528 100.975 12.264 101.023 11.912H101.575C101.559 12.216 101.535 12.584 101.503 13.016C101.487 13.432 101.471 13.984 101.455 14.672C101.455 15.36 101.455 16.264 101.455 17.384H100.903C100.839 16.552 100.647 15.744 100.327 14.96C100.007 14.176 99.5514 13.536 98.9594 13.04C98.3834 12.528 97.6714 12.272 96.8234 12.272C96.0554 12.272 95.4234 12.488 94.9274 12.92C94.4314 13.352 94.1834 13.952 94.1834 14.72C94.1834 15.36 94.3434 15.912 94.6634 16.376C94.9834 16.824 95.4474 17.264 96.0554 17.696C96.6794 18.128 97.4314 18.648 98.3114 19.256C99.0794 19.752 99.7674 20.248 100.375 20.744C100.983 21.24 101.471 21.8 101.839 22.424C102.207 23.048 102.391 23.792 102.391 24.656C102.391 25.712 102.111 26.584 101.551 27.272C101.007 27.96 100.287 28.48 99.3914 28.832C98.4954 29.168 97.5114 29.336 96.4394 29.336C95.4474 29.336 94.6554 29.24 94.0634 29.048C93.4714 28.856 92.9754 28.656 92.5754 28.448C92.2234 28.224 91.9514 28.112 91.7594 28.112C91.5994 28.112 91.4794 28.2 91.3994 28.376C91.3354 28.552 91.2794 28.816 91.2314 29.168H90.6794C90.7114 28.784 90.7274 28.336 90.7274 27.824C90.7434 27.312 90.7514 26.648 90.7514 25.832C90.7674 25 90.7754 23.952 90.7754 22.688H91.3274C91.3914 23.744 91.5674 24.736 91.8554 25.664C92.1594 26.576 92.6154 27.312 93.2234 27.872C93.8474 28.432 94.6714 28.712 95.6954 28.712C96.2554 28.712 96.7514 28.616 97.1834 28.424C97.6314 28.216 97.9914 27.912 98.2634 27.512C98.5354 27.112 98.6714 26.616 98.6714 26.024C98.6714 25.352 98.5114 24.768 98.1914 24.272C97.8874 23.776 97.4634 23.312 96.9194 22.88C96.3914 22.448 95.7754 22.008 95.0714 21.56C94.3194 21.064 93.6154 20.568 92.9594 20.072C92.3034 19.576 91.7754 19.008 91.3754 18.368C90.9914 17.728 90.7994 16.968 90.7994 16.088C90.7994 15.08 91.0474 14.256 91.5434 13.616C92.0554 12.96 92.7194 12.48 93.5354 12.176C94.3674 11.856 95.2474 11.696 96.1754 11.696Z" fill="#141414"/>
</svg>
